<svg xmlns="http://www.w3.org/2000/svg" xmlns:xlink="http://www.w3.org/1999/xlink" width="447.624" height="410" viewBox="0 0 447.624 410">
  <defs>
    <filter id="Rectangle_4" x="146.624" y="0" width="165" height="144" filterUnits="userSpaceOnUse">
      <feOffset dy="3" input="SourceAlpha"/>
      <feGaussianBlur stdDeviation="3" result="blur"/>
      <feFlood flood-opacity="0.161"/>
      <feComposite operator="in" in2="blur"/>
      <feComposite in="SourceGraphic"/>
    </filter>
    <filter id="Rectangle_6" x="282.624" y="100" width="165" height="144" filterUnits="userSpaceOnUse">
      <feOffset dy="3" input="SourceAlpha"/>
      <feGaussianBlur stdDeviation="3" result="blur-2"/>
      <feFlood flood-opacity="0.161"/>
      <feComposite operator="in" in2="blur-2"/>
      <feComposite in="SourceGraphic"/>
    </filter>
    <filter id="Polygon_1" x="146.624" y="112" width="166" height="158" filterUnits="userSpaceOnUse">
      <feOffset dy="3" input="SourceAlpha"/>
      <feGaussianBlur stdDeviation="3" result="blur-3"/>
      <feFlood flood-opacity="0.161"/>
      <feComposite operator="in" in2="blur-3"/>
      <feComposite in="SourceGraphic"/>
    </filter>
    <filter id="Polygon_2" x="0" y="182.166" width="203.248" height="207.668" filterUnits="userSpaceOnUse">
      <feOffset dy="3" input="SourceAlpha"/>
      <feGaussianBlur stdDeviation="3" result="blur-4"/>
      <feFlood flood-opacity="0.161"/>
      <feComposite operator="in" in2="blur-4"/>
      <feComposite in="SourceGraphic"/>
    </filter>
    <filter id="Ellipse_1" x="160.624" y="261" width="153" height="149" filterUnits="userSpaceOnUse">
      <feOffset dy="3" input="SourceAlpha"/>
      <feGaussianBlur stdDeviation="3" result="blur-5"/>
      <feFlood flood-opacity="0.161"/>
      <feComposite operator="in" in2="blur-5"/>
      <feComposite in="SourceGraphic"/>
    </filter>
    <filter id="Path_1" x="205.624" y="302.298" width="64" height="53.702" filterUnits="userSpaceOnUse">
      <feOffset dy="3" input="SourceAlpha"/>
      <feGaussianBlur stdDeviation="3" result="blur-6"/>
      <feFlood flood-opacity="0.161"/>
      <feComposite operator="in" in2="blur-6"/>
      <feComposite in="SourceGraphic"/>
    </filter>
  </defs>
  <g id="Hero" transform="translate(-1049.376 -239)">
    <g transform="matrix(1, 0, 0, 1, 1049.38, 239)" filter="url(#Rectangle_4)">
      <rect id="Rectangle_4-2" data-name="Rectangle 4" width="147" height="126" rx="41" transform="translate(155.62 6)" fill="#0de39c"/>
    </g>
    <g transform="matrix(1, 0, 0, 1, 1049.38, 239)" filter="url(#Rectangle_6)">
      <rect id="Rectangle_6-2" data-name="Rectangle 6" width="147" height="126" rx="32" transform="translate(291.62 106)" fill="#0de39c" opacity="0.53"/>
    </g>
    <rect id="Rectangle_5" data-name="Rectangle 5" width="147" height="126" rx="41" transform="translate(1058 345)" fill="#fdfffe"/>
    <g transform="matrix(1, 0, 0, 1, 1049.38, 239)" filter="url(#Polygon_1)">
      <path id="Polygon_1-2" data-name="Polygon 1" d="M57.2,31.78a19,19,0,0,1,33.6,0l42.466,80.342A19,19,0,0,1,116.466,140H31.534a19,19,0,0,1-16.8-27.879Z" transform="translate(155.62 118)" fill="#0a78e3"/>
    </g>
    <g transform="matrix(1, 0, 0, 1, 1049.38, 239)" filter="url(#Polygon_2)">
      <path id="Polygon_2-2" data-name="Polygon 2" d="M57.2,31.78a19,19,0,0,1,33.6,0l42.466,80.342A19,19,0,0,1,116.466,140H31.534a19,19,0,0,1-16.8-27.879Z" transform="translate(138.81 188.17) rotate(68)" fill="#0a78e3" opacity="0.68"/>
    </g>
    <g transform="matrix(1, 0, 0, 1, 1049.38, 239)" filter="url(#Ellipse_1)">
      <ellipse id="Ellipse_1-2" data-name="Ellipse 1" cx="67.5" cy="65.5" rx="67.5" ry="65.5" transform="translate(169.62 267)" fill="#f11414" opacity="0.59"/>
    </g>
    <g transform="matrix(1, 0, 0, 1, 1049.38, 239)" filter="url(#Path_1)">
      <path id="Path_1-2" data-name="Path 1" d="M22.824.3,46,36H0Z" transform="translate(214.62 308)" fill="#534b4b"/>
    </g>
  </g>
</svg>
